<svg width="40.568176" height="46.363647" viewBox="0 0 40.5682 46.3636" fill="none" xmlns="http://www.w3.org/2000/svg" xmlns:xlink="http://www.w3.org/1999/xlink">
	<desc>
			Created with Pixso.
	</desc>
	<defs/>
	<path d="M38.43 19.43L6.55 0.59C3.96 -0.94 0 0.54 0 4.33L0 42.01C0 45.4 3.68 47.45 6.55 45.75L38.43 26.91C41.27 25.24 41.28 21.11 38.43 19.43ZM29.14 25.67L10.16 36.88C8.24 38.02 5.79 36.63 5.79 34.38L5.79 11.95C5.79 9.7 8.24 8.31 10.16 9.45L29.14 20.68C29.58 20.93 29.94 21.3 30.19 21.74C30.44 22.17 30.57 22.67 30.57 23.17C30.57 23.67 30.44 24.17 30.19 24.61C29.94 25.04 29.58 25.41 29.14 25.67Z" fill="#FFFFFF" fill-opacity="0.500000" fill-rule="nonzero"/>
	<path d="M10.16 9.46L29.14 20.68C29.58 20.93 29.94 21.3 30.19 21.74C30.44 22.17 30.57 22.67 30.57 23.17C30.57 23.67 30.44 24.17 30.19 24.61C29.94 25.04 29.58 25.41 29.14 25.67L10.16 36.88C8.24 38.02 5.79 36.63 5.79 34.38L5.79 11.95C5.79 9.71 8.24 8.31 10.16 9.46Z" fill="#FFFFFF" fill-opacity="1.000000" fill-rule="nonzero"/>
</svg>
